<svg version="1.1" width="87" height="100" viewBox="0 0 86.7 100" xmlns="http://www.w3.org/2000/svg">
  <defs>
    <!--
      topleft (0 15.0), 
      top (25.98 0), 
      topright (51.96 15), 
      bottomright (51.96 45),
      bottom(25.98 60), 
      bottomleft(0 45)

      center (25.98 30)
    -->
    
    <polygon id="single" points="25.98 30, 51.96 15, 51.96 45" />
    <polygon id="double" points="25.98 30, 51.96 45, 25.98 60, 0 45" />
    <polygon id="triple" points="25.98 30, 0 45, 0 15, 25.98 0, 51.96 15" />

    <path id="hexagon" d="M43.3013 0 l43.3013 25 l0 50 l-43.3013 25 l-43.3013 -25 l 0 -50Z" /> <!-- width: 86.6026 -->

    <path id="char-t" d="M 11.41651,22.492 q -0.912,0 -1.387,0.304 -0.4560005,0.285 -0.6650005,0.798 -0.19,0.513 -0.323,1.216 -0.209,0 -0.475,-0.038 -0.266,-0.038 -0.437,-0.133 0.152,-0.798 0.228,-1.596 0.076,-0.798 0.076,-1.444 0.532,0.019 1.292,0.038 0.7790005,0.019 1.6720005,0.019 0.912,0 1.881,0 0.969,0 1.881,0 0.931,0 1.71,-0.019 0.779,-0.019 1.292,-0.038 -0.019,0.684 0,1.406 0.038,0.722 0.114,1.634 -0.19,0.095 -0.437,0.152 -0.228,0.038 -0.513,0.019 -0.019,-1.121 -0.532,-1.71 -0.494,-0.608 -1.615,-0.608 z m 0.969,-0.323 h 1.786 v 9.918 q 0,0.627 0.114,0.988 0.114,0.342 0.437,0.494 0.323,0.133 0.931,0.171 0.057,0.152 0.076,0.361 0.019,0.19 0.019,0.456 -0.608,-0.038 -1.254,-0.057 -0.627,0 -1.235,0 -0.399,0 -0.855,0 -0.437,0.019 -0.855,0.019 -0.418,0.019 -0.779,0.038 0,-0.266 0.019,-0.456 0.019,-0.209 0.076,-0.361 0.608,-0.038 0.931,-0.171 0.342,-0.152 0.456,-0.494 0.133,-0.361 0.133,-0.988 z" />
    <path id="char-h" d="M 27.813483,32.087 q 0,0.988 0.266,1.33 0.285,0.323 0.855,0.323 0.057,0.171 0.076,0.361 0.019,0.19 0.019,0.456 -0.418,-0.038 -0.95,-0.057 -0.532,0 -1.121,0 -0.38,0 -0.798,0 -0.418,0.019 -0.798,0.019 -0.361,0.019 -0.665,0.038 0,-0.266 0.019,-0.456 0.019,-0.209 0.076,-0.361 0.684,0 0.988,-0.342 0.323,-0.361 0.323,-1.311 v -2.888 q 0,-1.349 -0.494,-1.824 -0.494,-0.494 -1.273,-0.494 -0.494,0 -0.988,0.323 -0.494,0.304 -0.836,1.007 -0.323,0.684 -0.323,1.843 v 2.033 q 0,0.95 0.285,1.311 0.285,0.342 1.026,0.342 0.057,0.171 0.076,0.361 0.019,0.19 0.019,0.456 -0.266,-0.019 -0.646,-0.038 -0.38,0 -0.798,-0.019 -0.418,0 -0.817,0 -0.38,0 -0.798,0 -0.418,0.019 -0.798,0.019 -0.38,0.019 -0.665,0.038 0,-0.266 0.019,-0.456 0.019,-0.209 0.076,-0.361 0.741,0 1.026,-0.342 0.285,-0.361 0.285,-1.311 v -3.762 l 1.71,-1.862 q 0,0.228 -0.019,0.513 -0.019,0.285 -0.114,0.608 0.057,-0.095 0.114,-0.209 0.057,-0.133 0.171,-0.285 0.323,-0.437 1.026,-0.893 0.722,-0.475 1.729,-0.475 0.722,0 1.33,0.304 0.627,0.285 1.007,0.969 0.38,0.665 0.38,1.824 z m -7.334,-8.512 q 0,-0.456 -0.095,-0.741 -0.076,-0.304 -0.38,-0.456 -0.304,-0.152 -0.95,-0.152 0,-0.209 0.038,-0.38 0.038,-0.171 0.133,-0.323 0.285,0 0.798,-0.095 0.532,-0.095 1.026,-0.247 0.494,-0.152 0.722,-0.304 0.171,0.057 0.285,0.228 0.133,0.171 0.133,0.532 v 2.641 h -1.71 z m 0,0 h 1.71 v 2.888 l -1.71,2.147 z" />
    <path id="char-s" d="M 42.918499,26.292 q -0.019,0.456 -0.038,0.969 0,0.513 0.076,1.007 -0.19,0.114 -0.437,0.171 -0.247,0.057 -0.513,0.057 -0.038,-0.532 -0.323,-1.007 -0.266,-0.475 -0.722,-0.779 -0.456,-0.304 -1.083,-0.304 -0.589,0 -0.95,0.285 -0.342,0.285 -0.342,0.76 0,0.323 0.133,0.57 0.152,0.247 0.627,0.532 0.494,0.266 1.501,0.665 1.026,0.38 1.615,0.76 0.589,0.38 0.836,0.855 0.247,0.475 0.247,1.159 0,0.798 -0.456,1.406 -0.456,0.608 -1.254,0.95 -0.779,0.323 -1.767,0.323 -1.14,0 -1.824,-0.171 -0.665,-0.19 -1.311,-0.532 0.038,-0.304 0.038,-0.741 0.019,-0.437 0.019,-0.874 0,-0.437 -0.038,-0.741 0.152,-0.114 0.418,-0.152 0.285,-0.057 0.57,-0.057 0.152,1.197 0.741,1.786 0.589,0.589 1.577,0.589 0.779,0 1.197,-0.342 0.437,-0.342 0.437,-0.874 0,-0.342 -0.171,-0.589 -0.152,-0.247 -0.589,-0.494 -0.437,-0.247 -1.292,-0.589 -1.026,-0.418 -1.653,-0.779 -0.608,-0.361 -0.893,-0.855 -0.266,-0.494 -0.266,-1.254 0,-0.608 0.304,-1.045 0.304,-0.456 0.779,-0.741 0.494,-0.304 1.045,-0.437 0.551,-0.152 1.026,-0.152 0.855,0 1.501,0.171 0.646,0.171 1.235,0.494 z" />

    <path id="char-pipe" d="M 30.853496,39.079 V 21.181 q 0.209,-0.133 0.437,-0.171 0.228,-0.038 0.513,-0.038 0,1.083 0,2.546 0,1.463 -0.019,3.135 0,1.672 0,3.401 0,1.691 0,3.287 0.019,1.596 0.019,3.002 0,1.406 0,2.527 -0.133,0.076 -0.437,0.133 -0.304,0.076 -0.513,0.076 z" />

  </defs>

  <g>
    <use href="#hexagon" fill="#1B1658" />
    <use href="#hexagon" fill="#FFF" transform="translate(43.3013 50) scale(.9) translate(-43.3013 -50)" />
    <use href="#hexagon" fill="#1B1658" transform="translate(43.3013 50) scale(.85) translate(-43.3013 -50)" />
    <use href="#hexagon" fill="#FFF" transform="translate(43.3013 50) scale(.8) translate(-43.3013 -50)" />
  </g>

  <g fill="#1B1658">
      <!-- <text x="43.3013" y="50" text-anchor="middle" font-size="32" font-family="Vollkorn" fill="#0F0">
        <tspan alignment-baseline="central">Th||s</tspan>
      </text> -->

    <g aria-label="Th11s" transform="scale(1.6666) translate(0, .3)">
      <use href="#char-t" />
      <use href="#char-h" />
      <use href="#char-pipe" />
      <use href="#char-pipe" transform="translate(3.23, 0)" />
      <use href="#char-s" />
    </g>
  </g>

</svg>